<?xml version="1.0" encoding="UTF-8"?>
<svg xmlns="http://www.w3.org/2000/svg" viewBox="0 0 250 250">
  <defs>
    <style>
      .cls-1, .cls-2 {
        fill: #0c0c0c;
      }

      .cls-3 {
        fill: #fff;
        font-family: BebasNeue-Regular, 'Bebas Neue';
        font-size: 120px;
      }

      .cls-4 {
        fill: #f4d030;
      }

      .cls-2 {
        stroke: #231f20;
        stroke-miterlimit: 10;
      }
    </style>
  </defs>
  <g id="Layer_1" data-name="Layer 1">
    <rect class="cls-2" width="250" height="250"/>
  </g>
  <g id="Layer_2" data-name="Layer 2">
    <text class="cls-3" transform="translate(27.32 167)"><tspan x="0" y="0">Meet</tspan></text>
    <g>
      <ellipse class="cls-1" cx="199.04" cy="177.99" rx="42.13" ry="41.8"/>
      <path class="cls-4" d="M198.82,135.66c23.39,0,42.35,18.96,42.35,42.35,0,21.22-15.61,38.8-35.98,41.87v-41.04h0l9.16,9.16c2.49,2.48,6.52,2.48,9.01,0,1.24-1.24,1.86-2.87,1.86-4.5s-.62-3.26-1.86-4.5l-20.03-20.03c-.46-.47-.99-.85-1.54-1.14-.18-.1-.37-.18-.57-.26-.38-.16-.78-.27-1.18-.35-.4-.08-.81-.12-1.22-.12-.2,0-.41,0-.61.03-.1,0-.2.02-.3.04-.91.13-1.79.46-2.59.98-.35.23-.69.51-1,.82l-20.03,20.03c-2.49,2.49-2.49,6.52,0,9.01,1.24,1.24,2.87,1.86,4.5,1.86s3.26-.62,4.5-1.86l9.16-9.16v41.04c-20.37-3.07-35.98-20.65-35.98-41.87,0-23.39,18.96-42.35,42.35-42.35Z"/>
    </g>
  </g>
</svg>